<?xml version="1.0" standalone="no"?>
<!DOCTYPE svg PUBLIC "-//W3C//DTD SVG 1.1//EN" "http://www.w3.org/Graphics/SVG/1.1/DTD/svg11.dtd" >
<svg xmlns="http://www.w3.org/2000/svg">
<metadata></metadata>
<defs>
<font id="rodclaregular" horiz-adv-x="1228" >
<font-face units-per-em="2048" ascent="1638" descent="-410" />
<missing-glyph horiz-adv-x="614" />
<glyph horiz-adv-x="2048" />
<glyph horiz-adv-x="2048" />
<glyph unicode="&#xd;" horiz-adv-x="2048" />
<glyph unicode=" "  horiz-adv-x="614" />
<glyph unicode="&#x09;" horiz-adv-x="614" />
<glyph unicode="&#xa0;" horiz-adv-x="614" />
<glyph unicode="!" horiz-adv-x="243" d="M53 68q0 -28 20.5 -48t49.5 -20t48 20t19 48t-19 48.5t-48 20.5t-49.5 -20.5t-20.5 -48.5zM70 469l10 -244h74l10 244v965h-94v-965z" />
<glyph unicode="&#x22;" horiz-adv-x="419" d="M51 1456q0 28 19.5 49t48.5 21t49 -21t20 -49t-19 -47t-48 -20q6 -38 37 -74l-43 -15q-70 76 -64 156zM231 1456q0 28 19.5 49t48.5 21t49.5 -21t20.5 -49t-19.5 -46.5t-48.5 -20.5q6 -38 37 -74l-43 -15q-70 76 -64 156z" />
<glyph unicode="#" horiz-adv-x="1167" d="M51 483v74h236l88 332h-248v74h268l123 471h88l-123 -471h318l123 471h88l-123 -471h227v-74h-248l-88 -332h260v-74h-278l-127 -483h-88l127 483h-318l-127 -483h-88l127 483h-217zM375 557h317l88 332h-317z" />
<glyph unicode="$" horiz-adv-x="755" d="M66 1153q0 134 66 207t228 82v67h56v-67q75 -2 132 -20.5t89 -48t47 -67t11 -77t-23 -78.5q-18 -41 -62 -41q-29 0 -49 21t-20 49t20 47.5t49 19.5q11 0 27 -4q-5 140 -221 143v-522l90 -80q116 -101 160.5 -203.5t44.5 -236.5q0 -73 -14 -129.5t-46.5 -104t-91.5 -75 t-143 -31.5v-90h-56v90q-72 5 -126.5 36.5t-83 77.5t-42 100t-9.5 105.5t22 90.5q6 21 24 34t41 13q29 0 48.5 -20t19.5 -48t-19.5 -48.5t-48.5 -20.5q-16 0 -28 6q-3 -107 54 -183.5t148 -85.5v687l-49 43q-40 36 -55 49t-46.5 43t-43.5 44t-33.5 40t-29.5 43.5t-19 42 t-14.5 49t-3.5 51.5zM182 1161q0 -54 43.5 -110.5t126.5 -130.5l8 -9v473q-66 -8 -107.5 -43.5t-56 -80t-14.5 -99.5zM416 61q67 9 110.5 57t58.5 102t15 112q0 52 -2 81t-15.5 75t-41.5 85q-35 54 -125 127v-639z" />
<glyph unicode="%" horiz-adv-x="870" d="M72 1077q0 -83 44.5 -137.5t127.5 -54.5q80 0 124 55t44 137q0 89 -44 146t-124 57q-83 0 -127.5 -57t-44.5 -146zM117 -14h94l549 1464h-94zM154 1079q0 34 7.5 66.5t28.5 59t52 26.5t52 -26.5t28.5 -59t7.5 -66.5t-7.5 -65.5t-28.5 -56.5t-52 -25t-52 25t-28.5 56.5 t-7.5 65.5zM465 317q0 -83 44.5 -137.5t127.5 -54.5q80 0 124 55t44 137q0 89 -44 146t-124 57q-83 0 -127.5 -57t-44.5 -146zM547 319q0 34 7.5 66.5t28.5 59t52 26.5t52 -26.5t28.5 -59t7.5 -66.5t-7.5 -65.5t-28.5 -56.5t-52 -25t-52 25t-28.5 56.5t-7.5 65.5z" />
<glyph unicode="&#x26;" horiz-adv-x="874" d="M51 389q0 139 39.5 240t153.5 200l71 64l-34 86q-24 55 -36.5 112.5t-9 113.5t22.5 100t64 71.5t110 28.5q55 1 97 -5.5t68.5 -21.5t43.5 -32t25.5 -44t11 -50.5t2.5 -57.5q0 -58 -43.5 -132.5t-88.5 -123.5t-93 -92l-23 -21l264 -632q54 64 71.5 137t-11.5 162 q-21 -21 -49 -21q-29 0 -48.5 21t-19.5 49t19.5 47.5t48.5 19.5q31 0 53 -22q51 -78 60 -163.5t-16.5 -158.5t-78.5 -135l53 -129h-88l-31 68q-109 -81 -229 -78q-88 1 -155.5 25t-109 61.5t-68 90.5t-36.5 106.5t-10 115.5zM162 377q0 -39 5.5 -78t22.5 -86.5t45 -83 t78 -60t115 -24.5q45 0 100 22.5t105 63.5q-96 218 -266 639q-40 -34 -55 -47.5t-44 -42.5t-39.5 -46t-27.5 -46.5t-23 -58t-11 -67t-5 -85.5zM313 1262.5q-26 -90.5 29 -222.5l27 -61l12 -29l16 15q19 15 41 34.5t64 62t69 90.5t27 89q0 62 -45 92t-129 25 q-85 -5 -111 -95.5z" />
<glyph unicode="'" horiz-adv-x="198" d="M31 1092q0 28 20 48.5t49 20.5t48.5 -20.5t19.5 -48.5q6 -80 -64 -156l-43 14q31 36 37 74q-29 1 -48 20.5t-19 47.5z" />
<glyph unicode="(" horiz-adv-x="417" d="M51 715q0 -365 104.5 -579t262.5 -245v37q-74 33 -133.5 153t-92 289.5t-32.5 352.5q0 288 69 509t189 267v39q-158 -31 -262.5 -244.5t-104.5 -578.5z" />
<glyph unicode=")" horiz-adv-x="417" d="M0 -72v-37q158 31 262.5 245t104.5 579t-104.5 578.5t-262.5 244.5v-39q120 -46 189 -267t69 -509q0 -183 -32.5 -352.5t-92 -289.5t-133.5 -153z" />
<glyph unicode="*" horiz-adv-x="788" d="M31 1313l307 -60l6 15l-281 135zM141 977l76 -59l150 272l-15 8zM346 1610l43 -312h12l43 312h-98zM424 1190l147 -270l78 55l-213 225zM444 1268l7 -15l307 58l-29 90z" />
<glyph unicode="+" horiz-adv-x="1091" d="M51 553v74h457v430h74v-430h458v-74h-458v-485h-74v485h-457z" />
<glyph unicode="," horiz-adv-x="239" d="M51 68q0 28 20.5 48.5t49.5 20.5q27 0 46 -19t21 -46q6 -88 -59 -160l-43 14q21 25 27 39t8 35q-29 0 -49.5 20t-20.5 48z" />
<glyph unicode="-" horiz-adv-x="667" d="M51 553h565v74h-565v-74z" />
<glyph unicode="." horiz-adv-x="239" d="M51 68q0 -28 20.5 -48t49.5 -20t48 20t19 48t-19 48.5t-48 20.5t-49.5 -20.5t-20.5 -48.5z" />
<glyph unicode="/" horiz-adv-x="567" d="M51 0h88l377 1434h-88z" />
<glyph unicode="0" horiz-adv-x="866" d="M51 715q0 -355 101 -539t280 -186q179 0 281 185t102 540q0 357 -102 541t-283 182q-177 -2 -278 -186.5t-101 -536.5zM166 721q0 182 30.5 336t92 253t143.5 99t144.5 -98.5t94 -253.5t31.5 -336t-31 -339.5t-94 -262t-145 -103.5t-144 103.5t-92 262t-30 339.5z" />
<glyph unicode="1" horiz-adv-x="382" d="M51 1356v55l221 23v-1364q0 -33 60 -33v-37h-219v37q59 0 59 33v1235q0 28 -38.5 39.5t-82.5 11.5z" />
<glyph unicode="2" horiz-adv-x="753" d="M52 1246q-2 32 7 63.5t33.5 58.5t60.5 47.5t91.5 32.5t124.5 12q325 0 325 -274q0 -99 -56 -207.5t-173 -245.5q-16 -19 -53 -54.5t-63 -62.5t-60 -80t-55.5 -111.5t-36.5 -151t-15 -205.5h416q45 0 45 120h55v-172h-637v52v23q0 62 1 100t11.5 113t31 132.5t63 130 t102.5 133.5l170 172q67 67 103.5 154.5t36.5 153.5q0 45 -9.5 82t-32 71t-65.5 53t-104 19q-247 0 -260 -143q16 4 22 4q29 0 49.5 -20t20.5 -48t-20.5 -49t-49.5 -21q-24 0 -42 16t-23 38q-12 32 -14 64z" />
<glyph unicode="3" horiz-adv-x="759" d="M52 204q2 32 14 64q5 22 23 38t42 16q29 0 49.5 -21t20.5 -49t-20.5 -48t-49.5 -20q-6 0 -22 4q13 -143 260 -143q202 0 223 231q20 201 -78 263q-33 21 -52.5 30t-77 18t-146.5 9v16v70q68 0 115.5 7t96.5 32t78 68.5t47.5 120t18.5 184.5q0 311 -191 311 q-96 0 -152.5 -22t-66.5 -85q3 0 10.5 1t10.5 1q29 0 49 -19.5t20 -47.5t-20 -49t-49 -21q-25 0 -43 15.5t-23 38.5q-40 99 27 171t237 72q84 0 146 -29.5t98 -82.5t53 -120t17 -149q0 -98 -35.5 -191.5t-91.5 -154.5q-46 -53 -123 -84q121 -41 180 -127q74 -107 55 -258 q-7 -60 -23.5 -105t-51.5 -85.5t-100 -62t-158 -21.5q-69 0 -124.5 12t-91.5 32.5t-60.5 47.5t-33.5 58.5t-7 63.5z" />
<glyph unicode="4" horiz-adv-x="741" d="M51 584v88l430 762h101v-762h108v-88h-108v-514q0 -33 59 -33v-37h-219v37q59 0 59 33v514h-430zM125 672h356v645z" />
<glyph unicode="5" horiz-adv-x="739" d="M51 195.5q4 38.5 23 78.5q6 20 24 32.5t41 12.5q29 0 48.5 -19.5t19.5 -47.5t-19.5 -49t-48.5 -21q-16 0 -28 6q0 -77 57 -107t166 -30q60 0 106.5 45t70.5 111t36 127.5t12 109.5q0 68 -1 116t-9 92.5t-12 73t-25.5 54t-33 39t-51 25.5t-62 16.5t-83.5 8t-99.5 3.5 h-125.5h-6v564h637v-172h-55q0 120 -45 120h-436v-421h137q74 0 131 -11.5t98.5 -31.5t70.5 -55.5t46.5 -74.5t27.5 -96.5t13.5 -115t3.5 -136.5q0 -93 -18.5 -170t-57.5 -140.5t-108 -99.5t-162 -36q-78 0 -136 16.5t-90 44t-46.5 64t-10.5 75z" />
<glyph unicode="6" horiz-adv-x="866" d="M59.5 510q-16.5 154 5 321t74.5 304t148.5 226.5t214.5 90.5q139 1 204.5 -67t36.5 -162q-2 -25 -21 -43.5t-46 -18.5q-29 0 -49.5 20t-20.5 48t20.5 48.5t49.5 20.5q10 0 16 -2q-18 101 -190 101q-91 0 -165 -92.5t-115 -236t-50 -312.5q47 120 124 189t163 69 q166 0 261 -144.5t95 -449.5q0 -127 -50.5 -226t-130 -149.5t-171.5 -50.5q-95 0 -180 57q-91 52 -149 178.5t-74.5 280.5zM170 596q10 -205 72.5 -361t175.5 -212q26 -11 43 -11q59 0 113.5 67.5t86 162.5t31.5 182q0 252 -60 401t-171 152q-77 3 -169 -112.5t-122 -268.5z " />
<glyph unicode="7" horiz-adv-x="710" d="M51 1210v224h608l-376 -1434h-88l350 1329h-393q-46 0 -46 -119h-55z" />
<glyph unicode="8" horiz-adv-x="833" d="M51 342q0 42 12.5 80.5t30.5 66t50.5 60t58 53t69.5 55t70 56.5l-70 49q-130 97 -175.5 189.5t-45.5 199.5q0 27 8 59t27.5 69t48.5 69t76 59t104 39q45 10 91 10h6h8q68 0 117 -18q61 -18 106.5 -53.5t68.5 -77t34 -74.5t14 -62q8 -74 -11 -132.5t-63.5 -115 t-134.5 -141.5q-7 -6 -21.5 -18.5t-21.5 -18.5l10 -8q125 -93 194.5 -199.5t69.5 -240.5q0 -117 -62.5 -199.5t-201.5 -107.5q-48 -10 -96 -10h-10h-11q-19 0 -51 4q-65 10 -118 38t-86 64.5t-55 81.5t-31 88t-9 86zM125 319q0 -60 33 -124.5t101 -113.5t153 -52 q64 2 114.5 26.5t79.5 62.5t43.5 80.5t14.5 86.5q0 60 -33 132.5t-84 129.5q-35 46 -144 123q-49 -35 -81 -59.5t-73 -62t-65.5 -70t-41.5 -75t-17 -84.5zM186 1126q0 -58 36 -124t112 -123l106 -82l80 67q72 60 107 131t35 131q0 39 -14 84t-42 90.5t-79 76.5t-115 32 q-52 -1 -93 -22t-65.5 -52t-40.5 -70.5t-21.5 -73.5t-5.5 -65z" />
<glyph unicode="9" horiz-adv-x="866" d="M51 1026q0 127 50.5 226t130 149.5t171.5 50.5q96 0 181 -57q91 -52 149 -178.5t74.5 -280.5t-5 -321t-74.5 -304t-148.5 -226.5t-214.5 -90.5q-139 -1 -205 67t-37 162q2 25 21 43.5t46 18.5q29 0 49.5 -20t20.5 -48t-20.5 -49t-49.5 -21q-7 0 -16 3q18 -101 191 -101 q91 0 164.5 92.5t114.5 236t50 312.5q-47 -120 -123.5 -189t-162.5 -69q-166 0 -261.5 144.5t-95.5 449.5zM174 1022q0 -252 60.5 -401t171.5 -152q77 -3 168.5 112.5t121.5 268.5q-10 205 -72 361t-175 212q-26 11 -43 11q-59 0 -114 -67.5t-86.5 -162.5t-31.5 -182z" />
<glyph unicode=":" horiz-adv-x="239" d="M51 68q0 -28 20.5 -48t49.5 -20t48 20t19 48t-19 48.5t-48 20.5t-49.5 -20.5t-20.5 -48.5zM51 967q0 -28 20.5 -48t49.5 -20t48 20t19 48t-19 48.5t-48 20.5t-49.5 -20.5t-20.5 -48.5z" />
<glyph unicode=";" horiz-adv-x="239" d="M51 63q0 28 20.5 49t49.5 21q27 0 46 -19t21 -46q6 -88 -59 -160l-43 14q21 25 27 39t8 35q-29 0 -49.5 19.5t-20.5 47.5zM51 967q0 28 20.5 48.5t49.5 20.5t48 -20.5t19 -48.5t-19 -48t-48 -20t-49.5 20t-20.5 48z" />
<glyph unicode="&#x3c;" horiz-adv-x="980" d="M51 559v92l879 447v-92l-789 -400l789 -401v-92z" />
<glyph unicode="=" horiz-adv-x="667" d="M51 352h565v74h-565v-74zM51 596h565v74h-565v-74z" />
<glyph unicode="&#x3e;" horiz-adv-x="980" d="M51 113v92l789 401l-789 400v92l879 -447v-92z" />
<glyph unicode="?" horiz-adv-x="753" d="M51.5 1216q-3.5 41 13.5 80t52.5 70t100.5 49.5t151 18.5q93 0 160 -23t103.5 -65.5t53 -92.5t16.5 -112q0 -76 -55 -153t-192 -195q-47 -41 -73.5 -97.5t-32.5 -123t-4.5 -122t7.5 -126t6 -103.5h-116q0 24 -3 90t-4.5 115.5t4.5 121t20.5 126.5t46.5 112t79 95 q215 174 215 266q0 43 -12.5 82.5t-38.5 73.5t-72.5 54.5t-107.5 20.5q-123 0 -190 -35.5t-70 -117.5q12 6 26 6q29 0 49.5 -20t20.5 -48t-20.5 -48.5t-49.5 -20.5q-43 0 -61 41q-19 40 -22.5 81zM236 68q0 28 20 48.5t49 20.5t48.5 -20.5t19.5 -48.5t-19.5 -48t-48.5 -20 t-49 20t-20 48z" />
<glyph unicode="@" horiz-adv-x="1226" d="M51 498q0 100 21.5 198.5t66.5 189t107.5 159.5t151 110t190.5 41q68 0 124.5 -6t118.5 -23.5t111 -46.5t94 -77.5t75 -113.5t47.5 -158t17.5 -208q0 -102 -6 -181.5t-16 -133t-27 -91.5t-33 -58t-40.5 -31.5t-44 -14t-48.5 -2.5q-83 0 -129 54.5t-66 158.5 q-51 -131 -147 -168q-92 -36 -175 29q-104 82 -131 272q-8 56 -8 119q0 236 103 355q75 86 170 74q96 -13 159 -120q6 -10 11 -20l2 131h84q0 -62 -1 -149.5t-1.5 -144.5t-0.5 -130t3 -121t8 -101.5t15 -86.5t24.5 -62t35.5 -42t48 -13q42 0 67 34.5t40 142t15 302.5 q0 93 -12 171t-31 134t-49 101t-59 74t-69.5 50t-72 31.5t-73.5 16.5t-67.5 7t-61.5 1q-82 0 -162.5 -44.5t-146.5 -124.5t-107 -206.5t-41 -277.5q0 -86 11.5 -158.5t31 -122.5t46 -89.5t54 -62.5t58.5 -37.5t56.5 -20t49.5 -5.5l4 -37q-165 0 -280 147t-115 386zM412 520 q0 -397 182 -397q48 0 92.5 64t65.5 171q-8 101 -4 349q-26 97 -73 149.5t-95 52.5q-96 0 -132 -88.5t-36 -300.5z" />
<glyph unicode="A" horiz-adv-x="970" d="M51 0v39q45 0 55 33l308 1280q3 21 -23 33t-43 12v37h199l315 -1360q13 -37 58 -37v-37h-238v37q67 0 61 31l-120 532h-316l-127 -534q-2 -29 70 -29v-37h-199zM326 672h280l-137 600z" />
<glyph unicode="B" horiz-adv-x="712" d="M51 1378v56h223q53 0 96 -7.5t90.5 -31.5t79.5 -64t53 -111t21 -167q0 -145 -65.5 -236t-173.5 -131q305 -55 305 -334q0 -58 -8 -105.5t-23 -82t-35.5 -61.5t-46 -44t-54.5 -29.5t-61 -17.5q-30 -5 -64 -9q-27 -3 -54 -3h-14h-33.5h-33.5h-34h-153v37q59 0 59 33v1263 q0 15 -9.5 25t-24 14t-23.5 5t-17 1zM225 70q0 -28 49 -33q88 7 148 32t93 68t46.5 94.5t13.5 120.5q0 35 -5.5 64.5t-26.5 67t-56.5 64t-103 45.5t-158.5 21v-544zM225 711q73 6 127.5 32.5t84 61.5t47 82.5t22 85t4.5 80.5q0 38 -0.5 60t-2.5 53.5t-6 49.5t-11.5 42 t-18 38t-27 30t-37.5 25t-49 16.5t-63 10.5h-10q-60 0 -60 -45v-622z" />
<glyph unicode="C" horiz-adv-x="882" d="M51 715q0 214 47 368.5t124.5 235t178.5 111.5q63 19 128 19q39 -1 79 -7q106 -18 213 -76l-2 -238h-55q0 162 -43 201q-49 44 -97.5 57t-129.5 13q-83 0 -158 -94.5t-119.5 -251.5t-44.5 -332t40 -328t110 -245.5t153 -92.5q50 0 91.5 11.5t83 40t72.5 85.5t48 140 l61 -47q-49 -172 -178 -251q-78 -48 -161 -48q-47 0 -95 15q-147 46 -239 214q-107 194 -107 500z" />
<glyph unicode="D" horiz-adv-x="796" d="M51 1378v56h174q63 -1 109 -5.5t95 -16t84 -31t70 -51.5t58.5 -77t44.5 -108t33 -144t19 -184.5t7 -230.5q0 -108 -14 -195.5t-39 -147t-59 -105t-73.5 -69.5t-83 -41.5t-88.5 -21.5q-44 -2 -88 -6q-20 -2 -39 -2q-22 0 -43 2h-40h-112v37q59 0 59 33v1263q0 15 -9.5 25 t-24 14t-23.5 5t-17 1zM225 92q0 -37 62 -37l18 2q62 5 108 19.5t90 49.5t71.5 90.5t44 146t16.5 212.5q0 187 -15 322.5t-41.5 222.5t-71 140.5t-95.5 77t-123 32.5q-64 0 -64 -37v-1241z" />
<glyph unicode="E" horiz-adv-x="714" d="M51 1378v56h613v-224h-37q0 11 -1 30t-4 49.5t-10 51.5t-18 21h-369v-692h367v-72h-367v-526h369q11 0 18 21t10 51.5t4 49t1 29.5h37v-223h-598v37q59 0 59 33v1263q0 15 -9.5 25t-24 14t-23.5 5t-17 1z" />
<glyph unicode="F" horiz-adv-x="714" d="M51 1378v56h613v-224h-37q0 11 -1 30t-4 49.5t-10 51.5t-18 21h-369v-688h367v-72h-367v-532q0 -33 60 -33v-37h-219v37q59 0 59 33v1263q0 15 -9.5 25t-24 14t-23.5 5t-17 1z" />
<glyph unicode="G" horiz-adv-x="952" d="M51 715q0 214 47 368.5t124.5 235t178.5 111.5q63 19 128 19q39 0 79 -7q106 -18 213 -76l-2 -238h-55q0 162 -43 201q-49 44 -97.5 57t-129.5 13q-83 0 -158 -94.5t-119.5 -251.5t-44.5 -332t40 -328t110 -245.5t153 -92.5q204 0 273 195q-7 364 -7 373h-206 q-33 0 -33 -60h-37v111h436v-33q-59 0 -59 -18q0 -447 -3 -528q-10 -222 -58 -295q-40 -60 -124 -60q-80 0 -129 20.5t-65 73.5q-6 12 -6 25v2q0 28 20 48.5t49 20.5t48.5 -20.5t19.5 -48.5q0 -25 -15.5 -44t-39.5 -22q19 -28 112 -28q29 0 48 13t30.5 40.5t16.5 69.5t6 100 v61v70q-36 -46 -81.5 -78t-94.5 -45q-45 -12 -92 -12h-11q-53 2 -103.5 25t-98 61t-87.5 100t-69.5 139t-46.5 181t-17 223z" />
<glyph unicode="H" horiz-adv-x="888" d="M51 1378v56h248v-56q-8 0 -17 -1t-23.5 -5t-24 -14t-9.5 -25v-659h439v659q0 15 -9.5 25t-24 14t-23.5 5t-17 1v56h248v-56q-8 0 -17 -1t-23.5 -5t-24 -14t-9.5 -25v-1263q0 -33 59 -33v-37h-219v37q60 0 60 33v532h-439v-532q0 -33 60 -33v-37h-219v37q59 0 59 33v1263 q0 15 -9.5 25t-24 14t-23.5 5t-17 1z" />
<glyph unicode="I" horiz-adv-x="321" d="M51 0v37q60 0 60 33v1294q0 33 -60 33v37h219v-37q-59 0 -59 -33v-1294q0 -33 59 -33v-37h-219z" />
<glyph unicode="J" horiz-adv-x="647" d="M68 135q0 28 20 49t49 21t48.5 -21t19.5 -49t-19.5 -47.5t-48.5 -19.5q-12 0 -18 2q1 -50 14.5 -85t30.5 -53t48.5 -27.5t55 -11.5t62.5 -2q37 0 64.5 12t45.5 38.5t29.5 58.5t17 82t7.5 98t2 117v1065h-287q-11 0 -18 -21t-10 -51.5t-4 -49.5t-1 -30h-37v224h457v-1137 q0 -93 -5.5 -156.5t-21.5 -122t-45.5 -92.5t-77.5 -53.5t-116 -19.5q-39 0 -59 1t-53 6t-50.5 15.5t-39.5 30.5t-33 50t-19 75t-8 104z" />
<glyph unicode="K" horiz-adv-x="714" d="M51 1378v56h174v-875l295 805q5 14 -3.5 22t-18 9.5t-19.5 1.5v37h168v-37q-37 0 -51 -23l-266 -729l270 -573q9 -18 29.5 -26.5t34.5 -8.5v-37h-230v37q8 0 17 1t22.5 4t19.5 10t1 18l-211 446l-58 -158v-288q0 -33 60 -33v-37h-219v37q59 0 59 33v1263q0 15 -9.5 25 t-24 14t-23.5 5t-17 1z" />
<glyph unicode="L" horiz-adv-x="714" d="M51 1378v56h248v-56q-8 0 -17 -1t-23.5 -5t-24 -14t-9.5 -25v-1261h338q45 0 45 121h56v-193h-598v37q59 0 59 33v1263q0 15 -9.5 25t-24 14t-23.5 5t-17 1z" />
<glyph unicode="M" horiz-adv-x="1148" d="M51 1378v56h174l348 -738l351 738h174v-56q-8 0 -17 -1t-23.5 -5t-24 -14t-9.5 -25v-1263q0 -33 59 -33v-37h-219v37q60 0 60 33v1175l-351 -741l-348 741v-1175q0 -33 60 -33v-37h-219v37q59 0 59 33v1263q0 15 -9.5 25t-24 14t-23.5 5t-17 1z" />
<glyph unicode="N" horiz-adv-x="907" d="M51 1378v56h174l457 -1024v1024h174v-56q-8 0 -17 -1t-23.5 -5t-24 -14t-9.5 -25v-1263q0 -33 60 -33v-37h-219v37q59 0 59 33v133l-457 1030v-1163q0 -33 60 -33v-37h-219v37q59 0 59 33v1263q0 15 -9.5 25t-24 14t-23.5 5t-17 1z" />
<glyph unicode="O" horiz-adv-x="956" d="M51 715q0 -176 33.5 -316t92.5 -228t135 -134t165 -47q89 0 165.5 46t135.5 134.5t93 228.5t34 316q0 177 -34 317t-93 228t-136 134q-75 45 -163 44h-4q-88 -1 -164 -47.5t-134.5 -134.5t-92 -227t-33.5 -314zM166 721q0 176 42 334.5t114 256t155 97.5t156.5 -97 t116.5 -256.5t43 -334.5t-43 -338t-116.5 -265t-156.5 -102t-155.5 102t-114 265t-41.5 338z" />
<glyph unicode="P" horiz-adv-x="665" d="M51 1378v56h223q53 0 96 -7.5t90.5 -31.5t79.5 -64t53 -111t21 -167q0 -100 -32.5 -176.5t-88.5 -122.5t-123.5 -70.5t-144.5 -28.5v-585q0 -33 60 -33v-37h-219v37q59 0 59 33v1263q0 15 -9.5 25t-24 14t-23.5 5t-17 1zM225 711q73 6 127.5 32.5t84 61.5t47 82.5t22 85 t4.5 80.5q0 38 -0.5 60t-2.5 53.5t-6 49.5t-11.5 42t-18 38t-27 30t-37.5 25t-49 16.5t-63 10.5h-10q-60 0 -60 -45v-622z" />
<glyph unicode="Q" horiz-adv-x="956" d="M51 715q0 175 33.5 314t92 227t134.5 134.5t164 47.5h4q88 0 163 -44q77 -46 136 -134t93 -228t34 -317q0 -295 -90 -478t-235 -231q0 -55 3 -88.5t13 -63.5t30.5 -43.5t53.5 -13.5h8q80 0 103 23h-7q-29 0 -48 19.5t-19 47.5t19 49t48 21t49.5 -21t20.5 -49 q0 -69 -49 -99t-123 -30q-93 0 -130.5 63.5t-39.5 170.5q-12 -2 -35 -2q-89 1 -165 47t-135 134t-92.5 228t-33.5 316zM166 721q0 -175 41.5 -338t114 -265t155.5 -102t156.5 102t116.5 265t43 338t-43 334.5t-116.5 256.5t-156.5 97t-155 -97.5t-114 -256t-42 -334.5z" />
<glyph unicode="R" horiz-adv-x="727" d="M51 1378v56h223q53 0 96 -7.5t90.5 -31.5t79.5 -64t53 -111t21 -167q0 -242 -182 -340l180 -639q5 -19 27 -28t37 -9v-37h-217v37q59 0 57 31l-170 608q-73 -19 -121 -21v-585q0 -33 60 -33v-37h-219v37q59 0 59 33v1263q0 15 -9.5 25t-24 14t-23.5 5t-17 1zM225 711 q73 6 127.5 32.5t84 61.5t47 82.5t22 85t4.5 80.5q0 38 -0.5 60t-2.5 53.5t-6 49.5t-11.5 42t-18 38t-27 30t-37.5 25t-49 16.5t-63 10.5h-10q-60 0 -60 -45v-622z" />
<glyph unicode="S" horiz-adv-x="755" d="M51 1145q0 141 75.5 215t258.5 74q79 0 139 -18t93.5 -47.5t49.5 -67.5q13 -31 13 -64v-15q-4 -40 -23 -79q-18 -41 -61 -41q-29 0 -49.5 20.5t-20.5 48.5t20.5 48t49.5 20q11 0 27 -4q-5 143 -238 143q-61 0 -105 -19.5t-67.5 -53t-34 -71t-10.5 -81.5q0 -54 44 -111.5 t126 -130.5l154 -135q116 -101 160 -203.5t44 -236.5q0 -77 -15.5 -135.5t-51 -106.5t-101 -73t-159.5 -25q-77 0 -136.5 30t-91 76.5t-46.5 101.5q-12 45 -12 88q1 10 1 20q4 53 22 94q6 20 24.5 33.5t41.5 13.5q29 0 48.5 -20t19.5 -48t-19.5 -49t-48.5 -21q-15 0 -29 7 v-10q-1 -106 61 -182q64 -78 165 -79q60 0 105 26.5t68 69t33.5 87t10.5 90.5q0 51 -2 81t-16 75.5t-42 84.5q-21 33 -52.5 63.5t-90 79.5t-86.5 74q-52 46 -72.5 65t-57.5 55.5t-51.5 58t-33 54t-25 63.5t-6.5 67z" />
<glyph unicode="T" horiz-adv-x="929" d="M90 1210v224h750v-224h-37q0 11 -1 30t-4 49.5t-10 51.5t-18 21h-258v-1292q0 -33 59 -33v-37h-219v37q60 0 60 33v1292h-252q-11 0 -18 -21t-10 -51.5t-4 -49.5t-1 -30h-37z" />
<glyph unicode="U" horiz-adv-x="942" d="M51 1378v56h248v-56q-8 0 -17 -1t-23.5 -5t-24 -14t-9.5 -25v-919q0 -387 242 -387q114 0 182 90.5t68 292.5v923q0 15 -9.5 25t-24 14t-23.5 5t-17 1v56h248v-56q-8 0 -17 -1t-23.5 -5t-24 -14t-9.5 -25v-923q0 -102 -27.5 -182t-76.5 -129t-111 -74t-135 -25 q-149 0 -245.5 108.5t-96.5 305.5v919q0 15 -9.5 25t-24 14t-23.5 5t-17 1z" />
<glyph unicode="V" horiz-adv-x="1050" d="M51 1397v37h238v-37q-9 0 -16.5 -1t-21 -4t-19 -12.5t-1.5 -23.5l316 -1211l321 1219q3 11 -5 18t-21.5 10t-23 4t-17.5 1v37h198v-39q-45 0 -57 -31l-340 -1288q-4 -21 21 -30t45 -9v-37h-277v37q64 0 60 31l-340 1296q-13 33 -60 33z" />
<glyph unicode="W" horiz-adv-x="1329" d="M51 1397v37h238v-37q-62 0 -64 -31l267 -1210l153 579l-166 629q-13 33 -59 33v37h237v-37q-9 0 -16.5 -1t-20.5 -4t-18.5 -12.5t-1.5 -23.5l105 -400l106 408q3 11 -5 18t-22 10t-23.5 4t-17.5 1v37h199v-39q-45 0 -57 -31l-146 -547l170 -653l242 1202q1 9 -8 16 t-23 10t-24 4t-17 1v37h199v-39q-42 0 -53 -33l-258 -1284h4q-4 -16 11 -26t29.5 -12.5t24.5 -2.5v-37h-276v37q63 0 59 31l-137 526l-137 -518q-4 -21 20.5 -30t44.5 -9v-37h-276v37q60 0 60 28l-1 7h2l-289 1296q-13 29 -55 29z" />
<glyph unicode="X" horiz-adv-x="835" d="M51 0v37q40 0 53 29l263 663l-254 643q-13 25 -54 25v37h211v-37q-9 0 -17 -0.5t-22 -3t-21.5 -9t-4.5 -16.5l209 -524l207 524q3 10 -4.5 16.5t-22 9t-22.5 3t-17 0.5v37h229v-37q-40 0 -57 -31l-260 -659l256 -646q13 -24 51 -24v-37h-211v37q9 0 17.5 0.5t23 3t21.5 9 t4 16.5l-207 526l-209 -529q-6 -26 68 -26v-37h-230z" />
<glyph unicode="Y" horiz-adv-x="796" d="M51 1397v37h215v-37q-7 0 -15.5 -1.5t-20 -4.5t-17 -10.5t-0.5 -18.5h-2l195 -576l208 580h-2q4 11 -1.5 18t-18 9.5t-19.5 3t-16 0.5v37h188v-37q-34 0 -49 -19l-247 -716v-592q0 -33 59 -33v-37h-219v37q59 0 59 33v589l-248 715q-16 23 -49 23z" />
<glyph unicode="Z" horiz-adv-x="780" d="M51 1210v224h676l2 -109l-577 -1221h495q11 0 18 16t10 40t4 38.5t1 24.5h37v-223h-660l-4 104l576 1221l-510 2q-13 -3 -20.5 -32t-9 -49.5t-1.5 -35.5h-37z" />
<glyph unicode="[" horiz-adv-x="489" d="M51 -274v1851h387v-100h-286v-1651h286v-100h-387z" />
<glyph unicode="\" horiz-adv-x="567" d="M51 1434l377 -1434h88l-377 1434h-88z" />
<glyph unicode="]" horiz-adv-x="489" d="M51 -174h287v1651h-287v100h387v-1851h-387v100z" />
<glyph unicode="^" />
<glyph unicode="_" horiz-adv-x="667" d="M51 -63v-74h565v74h-565z" />
<glyph unicode="`" />
<glyph unicode="a" horiz-adv-x="800" d="M51 516q0 276 117 421q79 99 183 99h10q111 -4 191 -115q21 -29 38 -63v166h160v-37q-60 0 -60 -33v-884q0 -33 60 -33v-37h-160v172q-66 -135 -175 -169q-32 -10 -63 -10q-71 0 -138 54q-118 96 -151 312q-12 74 -12 157zM180 520q0 -481 221 -481q56 0 109 75.5 t80 200.5v412q-29 128 -87 196t-120 68q-116 0 -159.5 -107t-43.5 -364z" />
<glyph unicode="b" horiz-adv-x="798" d="M51 1378v56h174v-545q72 124 182 144q21 4 41 4q86 0 159 -74q118 -117 138 -361l3 -86q0 -275 -116 -421q-82 -102 -188 -102h-6q-110 3 -191 114q-11 16 -22 34v-141h-159v37q59 0 59 33v1263q0 15 -9.5 25t-24 14t-23.5 5t-17 1zM225 252q30 -99 77 -156t95 -57 q221 0 221 481q0 258 -43 364.5t-159 106.5q-54 0 -106.5 -52.5t-84.5 -152.5v-534z" />
<glyph unicode="c" horiz-adv-x="593" d="M31 516q0 72 15 153.5t60 175t113 142.5q29 21 61 33q32 14 76 18q7 1 15 0q38 0 81 -18q52 -22 103 -72v-139h-55q0 25 -13.5 83t-37.5 71q-32 17 -66 21q-7 1 -13 1q-28 1 -58 -11q-38 -14 -72 -63.5t-58 -128.5q-17 -60 -27 -136q-7 -50 -7 -116q0 -32 2 -68 q5 -108 32 -202q14 -49 34 -92t47.5 -76.5t56.5 -48.5q16 -8 34 -9q14 0 29 6q34 12 66 56q56 76 63 154l35 -27q0 -22 -16.5 -69.5t-38.5 -77.5q-64 -88 -142 -88q-67 0 -143 65q-83 66 -129.5 209.5t-46.5 253.5z" />
<glyph unicode="d" horiz-adv-x="815" d="M51 516q0 276 117 421q79 99 183 99h10q111 -4 191 -115q21 -29 38 -63v576h174v-56q-8 0 -17 -1t-23.5 -5t-24 -14t-9.5 -25v-1263q0 -33 60 -33v-37h-160v172q-66 -135 -175 -169q-32 -10 -63 -10q-71 0 -138 54q-118 96 -151 312q-12 74 -12 157zM180 520 q0 -481 221 -481q56 0 109 75.5t80 200.5v412q-29 128 -87 196t-120 68q-116 0 -159.5 -107t-43.5 -364z" />
<glyph unicode="e" horiz-adv-x="643" d="M31 516q0 72 15 153.5t60 175t113 142.5q29 20 63 33q33 14 77 18q7 1 15 1q37 1 77 -19q48 -22 90 -72q71 -81 71 -327h-458q-5 -58 -5 -113q0 -135 33 -248q18 -62 46 -112q26 -50 62 -83q30 -28 68 -29q6 0 12 2q44 6 89 56q37 44 58 81t34 89l33 -31 q-5 -31 -28.5 -76.5t-53.5 -80.5q-73 -85 -153 -85q-68 0 -142 62q-83 66 -129.5 209.5t-46.5 253.5zM160 672h344v38q0 167 -41 218q-11 17 -33 34q-22 16 -54 23q-12 3 -24 3q-20 0 -41 -8q-33 -12 -68.5 -61.5t-60.5 -136.5q-13 -49 -22 -110z" />
<glyph unicode="f" horiz-adv-x="501" d="M51 0v37q70 0 78 26l-10 893v17h-68v51h68q1 91 5 147.5t16.5 110.5t36 82.5t63 45.5t98.5 17q52 0 79.5 -8.5t53.5 -34.5v-139h-55q0 11 -6.5 48t-16.5 65q-19 35 -57 35q-70 0 -92.5 -85.5t-24.5 -283.5h252v-51h-252v-19q0 -14 2.5 -84.5t5 -267t2.5 -518.5 q0 -47 93 -47h4h6v-37h-281z" />
<glyph unicode="g" horiz-adv-x="768" d="M51 551q0 124 31 222.5t82.5 156t113.5 85.5q48 21 99 21q15 0 31 -2q66 -8 124 -49l173 39v-51l-121 -33q123 -137 123 -389q0 -98 -31 -177t-81.5 -125t-112.5 -69q-49 -19 -102 -19q-13 0 -26 1q-67 6 -125 39q-21 -13 -35 -24.5t-23.5 -25.5t-6.5 -30t18 -33 q8 -12 46 -12q11 0 24 2q60 4 123 18q59 12 130 12h11q77 -1 125 -28q38 -21 57 -56.5t19 -75t-18.5 -80.5t-51 -73.5t-83 -53t-109.5 -20.5q-200 0 -288 36q-95 39 -95 118q0 65 63 156q-12 9 -18 26q-11 37 -9 63t20 46.5t35.5 31.5t39.5 19q-69 47 -110.5 132t-41.5 202z M147 -83v-8q0 -37 17 -61q18 -27 47.5 -46t70.5 -27.5t81 -11.5q24 -2 49 -2q17 0 34 1q111 5 156 84q19 35 19 68q0 24 -10 48q-20 45 -64 54q-66 10 -116 10q-18 0 -35 -1q-61 -5 -126 -11q-38 -4 -63 -4q-20 0 -33 2q-25 -53 -27 -95zM170 555q0 -171 58 -261 q57 -87 145 -87h4q92 2 150.5 90t58.5 258q0 117 -28 220t-76.5 164.5t-104.5 61.5q-85 0 -146 -133t-61 -313z" />
<glyph unicode="h" horiz-adv-x="778" d="M51 0v37q60 0 60 33v1294q0 33 -60 33v37h160v-670q57 260 205 260q90 0 107 -2q81 -12 117 -92q42 -94 42 -305v-555q0 -33 59 -33v-37h-233v37q59 0 59 33v553q0 200 -30.5 287t-120.5 87q-78 0 -132 -117.5t-73 -322.5v-487q0 -33 59 -33v-37h-219z" />
<glyph unicode="i" horiz-adv-x="321" d="M51 0v37q60 0 60 33v884q0 33 -60 33v37h160v-954q0 -33 59 -33v-37h-219zM84 1249q0 28 20.5 49t49.5 21t48 -21t19 -49t-19 -47.5t-48 -19.5t-49.5 19.5t-20.5 47.5z" />
<glyph unicode="j" horiz-adv-x="403" d="M-51 -133q0 28 20 49t49 21t48.5 -21t19.5 -49t-19.5 -48t-48.5 -20h-8q25 -96 119 -96q37 0 59.5 28t31.5 99.5t10 117.5q1 28 1 80v78v66v752q0 15 -21 25t-52 14t-49.5 5t-30.5 1v55h254v-854q0 -61 -1 -100.5t-3.5 -92t-8.5 -86.5t-16 -73.5t-26 -63.5t-37.5 -45.5 t-51.5 -31t-67 -9.5q-147 0 -170 185zM215 1253q0 28 20.5 49t49.5 21t48 -21t19 -49t-19 -47.5t-48 -19.5t-49.5 19.5t-20.5 47.5z" />
<glyph unicode="k" horiz-adv-x="657" d="M51 1378v56h174v-856l215 399q2 9 11 22l2 2q21 25 53 25q29 0 48 -21t19 -49t-19 -47.5t-48 -19.5q-31 0 -53 22l-158 -290q252 -19 252 -320v-231q0 -33 59 -33v-37h-219v37q59 0 59 33v229q0 160 -64 240q-40 50 -101 55l-56 -105v-419q0 -33 60 -33v-37h-219v37 q59 0 59 33v1263q0 15 -9.5 25t-24 14t-23.5 5t-17 1z" />
<glyph unicode="l" horiz-adv-x="333" d="M49 1378v56h174v-1364q0 -33 60 -33v-37h-220v37q60 0 60 33v1263q0 15 -9.5 25t-24 14t-23.5 5t-17 1z" />
<glyph unicode="m" horiz-adv-x="1234" d="M51 0v37q60 0 60 33v884q0 33 -60 33v37h160v-260q57 260 205 260h28q12 1 24 1q9 -1 17 -1q20 -2 38.5 -3.5t35 -9t31 -19.5t26.5 -33t21.5 -49.5t16.5 -69t10 -92.5q56 276 208 276q88 0 105 -2q73 -12 106 -86q41 -92 41 -311v-555q0 -33 60 -33v-37h-219v37 q59 0 59 33v553q0 200 -31 287t-121 87q-77 0 -131 -117.5t-73 -322.5v-444h-101v510q0 200 -30.5 287t-120.5 87q-78 0 -132 -117.5t-73 -322.5v-487q0 -33 59 -33v-37h-219z" />
<glyph unicode="n" horiz-adv-x="768" d="M51 0v37q60 0 60 33v884q0 33 -60 33v37h160v-260q57 260 205 260q88 0 105 -2q73 -12 106 -86q41 -92 41 -311v-555q0 -33 59 -33v-37h-219v37q59 0 59 33v553q0 200 -30.5 287t-120.5 87q-78 0 -132 -117.5t-73 -322.5v-487q0 -33 59 -33v-37h-219z" />
<glyph unicode="o" horiz-adv-x="765" d="M31 516q0 245 101 381.5t247 138.5h8q65 0 125 -31q64 -33 113.5 -95.5t79.5 -164.5t30 -229q0 -126 -29 -227.5t-79 -164.5t-112.5 -96.5t-131.5 -33.5t-131.5 33.5t-112.5 96.5t-79 164.5t-29 227.5zM150 520q0 -126 31.5 -244t85.5 -191t114 -73t114 73t85.5 191 t31.5 244t-32 241t-85.5 185t-113.5 70t-113.5 -70t-85.5 -185t-32 -241z" />
<glyph unicode="p" horiz-adv-x="804" d="M51 -270q8 0 17 1t23.5 5t24 14t9.5 25v1179q0 33 -59 33v37h159v-145q71 128 180 153q25 6 48 6q82 0 153 -67q118 -111 143 -345q5 -53 5 -110q0 -263 -116 -401q-81 -97 -187 -97h-10q-112 6 -192 115q-13 18 -24 37v-395q0 -15 9.5 -25t24 -14t23.5 -5t17 -1v-56 h-248v56zM225 281q29 -99 77.5 -154t100.5 -55q119 0 170.5 110t51.5 338q0 257 -43.5 364t-159.5 107q-57 0 -111.5 -58t-85.5 -167v-485z" />
<glyph unicode="q" horiz-adv-x="804" d="M53 516q0 253 97 394q90 131 204 131q9 0 19 -1q125 -12 207 -157v145h159v-37q-59 0 -59 -33v-1177q0 -15 9.5 -25t24 -14t23.5 -5t17 -1v-55h-174v485q-48 -82 -118 -120q-50 -28 -100 -28q-19 0 -39 4q-70 15 -131.5 69t-100 166t-38.5 259zM182 520q0 -228 51.5 -338 t169.5 -110q51 0 100 53.5t77 148.5v500q-32 105 -85.5 161t-109.5 56q-116 0 -159.5 -107t-43.5 -364z" />
<glyph unicode="r" horiz-adv-x="624" d="M51 0v37q60 0 60 33v884q0 33 -60 33v37h160v-156q63 156 205 156q41 0 71 -13.5t48.5 -36.5t29.5 -59.5t15 -77.5t4 -96h-125v56q7 0 15 1.5t19 5.5t17.5 14.5t5.5 25.5q-7 80 -29.5 108.5t-70.5 28.5q-66 0 -120 -58t-85 -175v-678q0 -33 59 -33v-37h-219z" />
<glyph unicode="s" horiz-adv-x="587" d="M51 780q0 129 67.5 200t168.5 71q112 1 170 -65q52 -58 52 -189q0 -16 -1 -33h-111v55q11 0 21 2t21 13t7 30q-6 65 -43 98t-116 33q-47 0 -79.5 -34.5t-45 -80.5t-12.5 -96t32.5 -97t124.5 -130q122 -109 176 -192t54 -170q0 -68 -38.5 -113.5t-92.5 -63.5t-119 -18 q-96 0 -161 74q-56 63 -56 164q0 17 2 36h106v-55q-34 0 -39 -31q15 -70 53.5 -104.5t94.5 -34.5q66 0 110.5 40t44.5 101q0 53 -59 128.5t-139 146.5q-3 3 -29 26.5t-31.5 28.5t-28 27t-29 32t-23 31.5t-22.5 37.5t-15 38.5t-12 45.5t-3 48z" />
<glyph unicode="t" horiz-adv-x="653" d="M20 973v51h25q84 0 115 22t37 87l4 301h100q0 -94 -4 -410h305v-51h-305l-6 -494q0 -74 1 -118.5t4 -100.5t9.5 -87.5t17.5 -61.5t28.5 -43t41.5 -13q115 0 139 115l-12 -2q-29 0 -48 20t-19 48t19 48.5t48 20.5t49.5 -20.5t20.5 -48.5q1 -11 1 -21q0 -88 -46 -145 q-51 -64 -152 -64q-49 0 -84.5 13t-57.5 47.5t-35 66.5t-18.5 97.5t-6.5 111t-1 135.5l7 496h-177z" />
<glyph unicode="u" horiz-adv-x="768" d="M41 987v37h219v-37q-59 0 -59 -33v-553q0 -200 30.5 -287t120.5 -87q78 0 132 117.5t73 322.5v487q0 33 -59 33v37h219v-37q-60 0 -60 -33v-884q0 -33 60 -33v-37h-160v260q-57 -260 -205 -260q-112 0 -182 98t-70 301v555q0 33 -59 33z" />
<glyph unicode="v" horiz-adv-x="790" d="M31 969v55h264v-55q-12 0 -27.5 -2t-33 -14t-13.5 -31l170 -719l221 723q3 8 -4 18v2q-16 23 -65 23v55h217v-55q-59 0 -74 -43l-283 -926h-73l-226 928q-13 41 -73 41z" />
<glyph unicode="w" horiz-adv-x="1046" d="M31 969v55h264v-55q-12 0 -27.5 -2t-33 -14t-13.5 -31l187 -785l112 539l-2 10q-10 18 -30 33.5t-29 15.5v56h149l152 -639l125 776q1 17 -13 27t-26.5 12t-22.5 2v55h195v-55q-45 0 -60 -39l-163 -930h-111l-129 535l-115 -535h-110l-226 928q-13 41 -73 41z" />
<glyph unicode="x" horiz-adv-x="716" d="M51 969v55h264v-55q-10 0 -23 -2t-27 -11.5t-11 -25.5l125 -322l129 318q5 18 -9.5 28.5t-28 12.5t-24.5 2v55h218v-55q-7 0 -16.5 -1.5t-24 -5.5t-26.5 -14.5t-17 -25.5l-164 -408l162 -414q0 -2 2 -4q15 -41 86 -41v-55h-265v55q11 0 23.5 2t26.5 12t10 27l-105 271 l-108 -269q-5 -18 9.5 -28.5t27.5 -12.5t24 -2v-55h-217v55q7 0 16.5 1.5t24 5.5t26.5 14.5t17 25.5l143 359l-182 473q-19 35 -86 35z" />
<glyph unicode="y" horiz-adv-x="780" d="M51 987v37h219v-37q-59 0 -59 -33v-553q0 -200 30.5 -287t120.5 -87q79 0 134.5 124.5t72.5 340.5v462q0 33 -59 33v37h219v-37q-59 0 -59 -33v-886q0 -69 -6.5 -124t-24.5 -108.5t-47.5 -89t-79 -57t-115.5 -21.5q-56 0 -102.5 10.5t-87 33t-63.5 65t-23 100.5 q0 28 20 49t49 21t48.5 -21t19.5 -49t-19.5 -47.5t-48.5 -19.5h-8q34 -109 217 -109q36 0 63 12.5t45.5 37t31 55.5t19 75t9 88t2.5 101v198q-56 -268 -207 -268q-112 0 -181.5 98t-69.5 301v555q0 33 -60 33z" />
<glyph unicode="z" horiz-adv-x="577" d="M51 0v51l361 922h-291q-11 0 -18 -14.5t-10 -36.5t-4 -35.5t-1 -22.5h-37v160h473v-51l-362 -922h295q32 0 32 109h37v-160h-2h-473z" />
<glyph unicode="{" horiz-adv-x="468" d="M51 674v57q33 13 54.5 25.5t34 31t17.5 35t6 47.5t-1 58t-4 77t-2 95q0 220 57.5 310.5t204.5 107.5v-54q-27 -6 -49 -16t-38 -20t-28.5 -28t-20.5 -31t-13.5 -40t-8.5 -43t-4.5 -51.5t-1.5 -55v-62.5v-21q0 -21 1.5 -62t1.5 -65.5t-2 -60.5t-10.5 -61.5t-23 -53.5 t-39.5 -50.5t-59 -40.5q34 -18 59 -40.5t39.5 -50.5t23 -53t10.5 -61t2 -60.5t-1.5 -65.5t-1.5 -62q0 -164 10 -215q19 -96 94 -132q26 -13 60 -21v-54q-147 17 -204.5 107.5t-57.5 310.5q0 45 2 95t4 77t1 58t-6 47.5t-17.5 35t-34 31t-54.5 25.5z" />
<glyph unicode="}" horiz-adv-x="468" d="M51 -59q27 6 49 16t38 20t28.5 28t20.5 31t13.5 40t8.5 43t4.5 51.5t1.5 55v62.5v7.5v6.5v7q0 21 -1.5 62t-1.5 65.5t2 60.5t10.5 61t23 53t39.5 50.5t59 40.5q-34 18 -59 40.5t-39.5 50.5t-23 53.5t-10.5 61.5t-2 60.5t1.5 65.5t1.5 62q0 164 -10 215q-19 96 -94 132 q-26 13 -60 21v54q147 -17 204.5 -107.5t57.5 -310.5q0 -45 -2 -95t-4 -77t-1 -58t6 -47.5t17.5 -35t34 -31t54.5 -25.5v-57q-33 -13 -54.5 -25.5t-34 -31t-17.5 -35t-6 -47.5t1 -58t4 -77t2 -95q0 -220 -57.5 -310.5t-204.5 -107.5v54z" />
<glyph unicode="&#xa1;" horiz-adv-x="243" d="M53 1044q0 -28 19.5 -48.5t48.5 -20.5t49 20.5t20 48.5t-20 48t-49 20t-48.5 -20t-19.5 -48zM80 -322h94v965l-10 244h-74l-10 -244v-965z" />
<glyph unicode="&#xa8;" horiz-adv-x="622" d="M51 1397q0 -28 20.5 -48t49.5 -20t48 20t19 48t-19 48.5t-48 20.5t-49.5 -20.5t-20.5 -48.5zM434 1397q0 -28 20.5 -48t49.5 -20t48 20t19 48t-19 48.5t-48 20.5t-49.5 -20.5t-20.5 -48.5z" />
<glyph unicode="&#xad;" horiz-adv-x="667" d="M51 553h565v74h-565v-74z" />
<glyph unicode="&#xaf;" />
<glyph unicode="&#xb0;" horiz-adv-x="423" d="M80 1391q0 -53 39 -91t96 -38q55 0 92 38t37 91q0 56 -37 95.5t-92 39.5q-57 0 -96 -39.5t-39 -95.5zM137 1393q0 31 22 53t54 22t53 -22t21 -53t-21 -52.5t-53 -21.5t-54 21.5t-22 52.5z" />
<glyph unicode="&#xb4;" horiz-adv-x="632" d="M51 1327h84l447 270h-207z" />
<glyph unicode="&#xb7;" />
<glyph unicode="&#xb8;" />
<glyph unicode="&#xbf;" horiz-adv-x="753" d="M51 41q0 75 55.5 152t192.5 196q47 41 73.5 97.5t32 123t4 122t-7.5 126t-6 103.5h117q0 -24 3 -90t4.5 -115.5t-4.5 -121t-20.5 -126.5t-46.5 -112t-79 -95q-215 -174 -215 -266q0 -94 57 -163t174 -69q255 0 260 154q-12 -6 -27 -6q-29 0 -49 19.5t-20 47.5t20 49 t49 21q44 0 62 -41q19 -40 22.5 -81t-13.5 -80t-52.5 -70t-100.5 -49.5t-151 -18.5q-93 0 -160.5 23.5t-104 65.5t-53 92t-16.5 112zM381 1114q0 28 19.5 48t48.5 20t49 -20t20 -48t-20 -49t-49 -21t-48.5 21t-19.5 49z" />
<glyph unicode="&#x2c6;" />
<glyph unicode="&#x2dc;" d="M242 1479q41 -72 90 -111.5t95.5 -43.5t90.5 16.5t80 64.5q60 71 119 81.5t105 -26t83 -110.5l41 12q-19 54 -42 95t-56.5 72t-72 40t-89 -9t-106.5 -67q-62 -55 -103.5 -79t-75 -19.5t-57.5 27.5t-57 73z" />
<glyph unicode="&#x2000;" horiz-adv-x="805" />
<glyph unicode="&#x2001;" horiz-adv-x="1610" />
<glyph unicode="&#x2002;" horiz-adv-x="805" />
<glyph unicode="&#x2003;" horiz-adv-x="1610" />
<glyph unicode="&#x2004;" horiz-adv-x="536" />
<glyph unicode="&#x2005;" horiz-adv-x="402" />
<glyph unicode="&#x2006;" horiz-adv-x="268" />
<glyph unicode="&#x2007;" horiz-adv-x="268" />
<glyph unicode="&#x2008;" horiz-adv-x="201" />
<glyph unicode="&#x2009;" horiz-adv-x="322" />
<glyph unicode="&#x200a;" horiz-adv-x="89" />
<glyph unicode="&#x2010;" horiz-adv-x="667" d="M51 553h565v74h-565v-74z" />
<glyph unicode="&#x2011;" horiz-adv-x="667" d="M51 553h565v74h-565v-74z" />
<glyph unicode="&#x2012;" horiz-adv-x="667" d="M51 553h565v74h-565v-74z" />
<glyph unicode="&#x2013;" horiz-adv-x="1091" d="M51 553h989v74h-989v-74z" />
<glyph unicode="&#x2014;" horiz-adv-x="1347" d="M51 553h1245v74h-1245v-74z" />
<glyph unicode="&#x2018;" horiz-adv-x="239" d="M51 1370q-6 80 64 156l43 -15q-31 -37 -37 -73q29 -1 48 -20.5t19 -47.5t-20 -49t-49 -21t-48.5 21t-19.5 49z" />
<glyph unicode="&#x2019;" horiz-adv-x="239" d="M51 1456q0 28 20.5 49t49.5 21t48 -21t19 -49q6 -81 -63 -156l-43 15q31 36 37 74q-29 2 -48.5 20.5t-19.5 46.5z" />
<glyph unicode="&#x201c;" horiz-adv-x="419" d="M51 1370q-6 80 64 156l43 -15q-31 -37 -37 -73q29 -1 48 -20.5t19 -47.5t-20 -49t-49 -21t-48.5 21t-19.5 49zM231 1370q-6 80 64 156l43 -15q-31 -37 -37 -73q29 -2 48.5 -21t19.5 -47t-20.5 -49t-49.5 -21t-48.5 21t-19.5 49z" />
<glyph unicode="&#x201d;" horiz-adv-x="419" d="M51 1456q0 28 20.5 49t49.5 21t48 -21t19 -49q6 -81 -63 -156l-43 15q31 36 37 74q-29 2 -48.5 20.5t-19.5 46.5zM231 1456q0 28 20.5 49t49.5 21t48.5 -21t19.5 -49q6 -80 -64 -156l-43 15q31 36 37 74q-29 2 -48.5 20.5t-19.5 46.5z" />
<glyph unicode="&#x2022;" />
<glyph unicode="&#x2026;" horiz-adv-x="1073" d="M51 68q0 -28 20.5 -48t49.5 -20t48 20t19 48t-19 48.5t-48 20.5t-49.5 -20.5t-20.5 -48.5zM446 68q0 -28 20.5 -48t49.5 -20t48.5 20t19.5 48t-19.5 48.5t-48.5 20.5t-49.5 -20.5t-20.5 -48.5zM846 68q0 -28 20 -48t49 -20t48.5 20t19.5 48t-19.5 48.5t-48.5 20.5 t-49 -20.5t-20 -48.5z" />
<glyph unicode="&#x202f;" horiz-adv-x="322" />
<glyph unicode="&#x205f;" horiz-adv-x="402" />
<glyph unicode="&#x25fc;" horiz-adv-x="1024" d="M0 0v1024h1024v-1024h-1024z" />
</font>
</defs>
</svg>
